<svg xmlns="http://w3.org" width="400" height="400"><defs><linearGradient id="a" x1="0%" y1="0%" x2="100%" y2="100%"><stop offset="0%" stop-color="#23d18b"/><stop offset="40%" stop-color="#0e9f6e"/><stop offset="100%" stop-color="#064e3b"/></linearGradient><linearGradient id="b" x1="0%" y1="100%" x2="100%" y2="0%"><stop offset="0%" stop-color="#052e16"/><stop offset="60%" stop-color="#10b981"/><stop offset="100%" stop-color="#6ee7b7"/></linearGradient><radialGradient id="c" cx="50%" cy="50%" r="70%"><stop offset="0%" stop-color="#0e1714"/><stop offset="100%" stop-color="#040706"/></radialGradient><g id="d"><circle r="95" fill="url(#a)" opacity=".12" filter="blur(16px)"/><circle r="100" fill="none" stroke="url(#a)" stroke-width="1.5" opacity=".2"/><path d="m-80-40 40-40 60 60-40 60Z" fill="url(#b)" opacity=".85"/><path d="M-40-80 60-50l20 70-100 20-30-40Z" fill="url(#a)"/><path d="m-40-80 60 60 60 40" fill="none" stroke="#6ee7b7" stroke-width="1.5" opacity=".7"/><path d="m-80-40 60 80 80-90" fill="none" stroke="#047857" stroke-width="1.5" opacity=".5"/><circle cx="-40" cy="-80" r="3" fill="#fff"/><circle cx="60" cy="-50" r="2.5" fill="#6ee7b7"/><circle cx="80" cy="20" r="3.5" fill="#fff"/><circle cx="-20" cy="40" r="2.5" fill="#6ee7b7"/><circle cx="-80" cy="-40" r="3" fill="#10b981"/><circle cx="20" cy="-20" r="2" fill="#fff"/></g></defs><rect width="100%" height="100%" fill="url(#c)"/><g transform="translate(200 200)"><g><use href="#d"/><animateTransform attributeName="transform" type="translate" values="0,0; 0,-3; 0,0" dur="5s" repeatCount="indefinite"/></g><ellipse cy="6" rx="140" ry="16" fill="none" stroke="#10b981" stroke-dasharray="4 8" opacity=".3"/><text y="140" font-family="'Comic Sans MS', -apple-system, BlinkMacSystemFont, sans-serif" font-size="36" font-weight="800" letter-spacing="13" fill="#fff" text-anchor="middle">
      NEWWEB
    </text><text y="165" font-family="'Arial', -apple-system, BlinkMacSystemFont, sans-serif" font-size="10" font-weight="600" letter-spacing="4" fill="#fff" opacity=".7" text-anchor="middle">
      AN OPEN SOURCE PROJECT
    </text></g></svg>